<svg width="1024" height="3488" viewBox="0 0 1024 3488" fill="none" xmlns="http://www.w3.org/2000/svg">
<rect width="1024" height="3488" fill="#131112"/>
<path d="M0 1543.57C240.5 1344.78 840.5 1867.02 1024 1543.57V2428H0V1543.57Z" fill="#227037"/>
<path d="M0 2558.58C240.5 2743.92 840.5 2257.02 1024 2558.58V1734H0V2558.58Z" fill="#227037"/>
<circle cx="698" cy="1215" r="186" fill="#227037"/>
<circle cx="307.5" cy="912.5" r="116.5" fill="#227037"/>
<circle cx="628.5" cy="714.5" r="116.5" fill="#227037"/>
<circle cx="703" cy="800" r="71" fill="#227037"/>
<circle cx="116.5" cy="116.5" r="116.5" transform="matrix(1 0 0 -1 88 1624)" fill="#227037"/>
<circle cx="71" cy="71" r="71" transform="matrix(1 0 0 -1 208 1493)" fill="#227037"/>
<circle cx="174" cy="400" r="72" fill="#227037"/>
<circle cx="218.5" cy="516.5" r="27.5" fill="#227037"/>
<circle cx="280.5" cy="455.5" r="27.5" fill="#227037"/>
<circle cx="246" cy="314" r="14" fill="#227037"/>
<circle cx="234.5" cy="471.5" r="11.5" fill="#227037"/>
<circle cx="762.5" cy="560.5" r="64.5" fill="#227037"/>
<circle cx="548" cy="525" r="36" fill="#227037"/>
<circle cx="160.5" cy="2727.5" r="64.5" fill="#227037"/>
<circle cx="417.5" cy="2553.5" r="64.5" fill="#227037"/>
<circle cx="352.5" cy="2827.5" r="64.5" fill="#227037"/>
<circle cx="830.5" cy="2424.5" r="64.5" fill="#227037"/>
<circle cx="833.5" cy="2569.5" r="5.5" fill="#227037"/>
<circle cx="854.5" cy="2548.5" r="15.5" fill="#227037"/>
<circle cx="833.5" cy="2642.5" r="15.5" fill="#227037"/>
<circle cx="869.5" cy="2678.5" r="51.5" fill="#227037"/>
</svg>
