<svg width="193" height="106" viewBox="0 0 193 106" fill="none" xmlns="http://www.w3.org/2000/svg">
<g filter="url(#filter0_d_333_383)">
<path d="M69.72 61.36C68.6 61.36 67.6267 60.9467 66.8 60.12C66 59.32 65.6 58.36 65.6 57.24C65.6 56.0933 66 55.12 66.8 54.32C67.6267 53.4933 68.6 53.08 69.72 53.08C70.8667 53.08 71.84 53.4933 72.64 54.32C73.44 55.12 73.84 56.0933 73.84 57.24C73.84 58.36 73.44 59.32 72.64 60.12C71.84 60.9467 70.8667 61.36 69.72 61.36ZM79.2375 60V33.36H85.0375V54.96H94.6375V60H79.2375ZM100.852 36V30.8H107.292V36H100.852ZM97.7316 60V55.16H101.572V44.24H97.7316V39.4H107.212V55.16H110.652V60H97.7316ZM120.349 60.6C119.042 60.6 117.776 60.4667 116.549 60.2C115.349 59.9333 114.322 59.5733 113.469 59.12L113.989 54.32C114.896 54.88 115.896 55.3333 116.989 55.68C118.082 56.0267 119.109 56.2 120.069 56.2C120.922 56.2 121.669 56.04 122.309 55.72C122.949 55.4 123.269 54.9067 123.269 54.24C123.269 53.6 122.922 53.1333 122.229 52.84C121.562 52.5467 120.522 52.1333 119.109 51.6C118.576 51.3867 117.976 51.1467 117.309 50.88C116.669 50.6133 116.056 50.2667 115.469 49.84C114.882 49.3867 114.402 48.8133 114.029 48.12C113.656 47.4 113.469 46.5067 113.469 45.44C113.469 44 113.829 42.8 114.549 41.84C115.296 40.8533 116.309 40.1067 117.589 39.6C118.869 39.0933 120.309 38.84 121.909 38.84C123.002 38.84 124.069 38.9467 125.109 39.16C126.176 39.3733 127.189 39.6533 128.149 40L127.389 44.76C126.616 44.3067 125.736 43.9467 124.749 43.68C123.789 43.3867 122.882 43.24 122.029 43.24C121.202 43.24 120.509 43.3867 119.949 43.68C119.416 43.9467 119.149 44.3733 119.149 44.96C119.149 45.44 119.336 45.8267 119.709 46.12C120.082 46.3867 120.589 46.6267 121.229 46.84C121.869 47.0267 122.576 47.28 123.349 47.6C124.122 47.8933 124.936 48.2667 125.789 48.72C126.669 49.1733 127.416 49.8133 128.029 50.64C128.642 51.4667 128.949 52.6 128.949 54.04C128.949 55.56 128.562 56.8133 127.789 57.8C127.042 58.76 126.016 59.4667 124.709 59.92C123.429 60.3733 121.976 60.6 120.349 60.6ZM140.699 60.6C138.779 60.6 137.286 60.12 136.219 59.16C135.179 58.1733 134.659 56.7867 134.659 55V44.24H131.459V39.4H134.659V35C136.579 34.68 138.446 34.44 140.259 34.28V39.4H145.459V44.24H140.259V53.96C140.259 55.1067 140.899 55.68 142.179 55.68C142.926 55.68 143.779 55.5067 144.739 55.16L145.979 59.4C144.272 60.2 142.512 60.6 140.699 60.6ZM158.718 60.6C155.412 60.6 152.798 59.64 150.878 57.72C148.958 55.8 147.998 53.1333 147.998 49.72C147.998 47.48 148.412 45.5467 149.238 43.92C150.065 42.2933 151.225 41.04 152.718 40.16C154.238 39.28 156.012 38.84 158.038 38.84C161.025 38.84 163.318 39.8 164.918 41.72C166.518 43.64 167.318 46.4133 167.318 50.04C167.318 50.28 167.318 50.52 167.318 50.76C167.318 50.9733 167.305 51.1867 167.278 51.4H153.678C154.212 54.28 156.118 55.72 159.398 55.72C160.412 55.72 161.438 55.6 162.478 55.36C163.545 55.0933 164.478 54.7467 165.278 54.32L166.198 58.84C163.985 60.0133 161.492 60.6 158.718 60.6ZM153.638 47.16H161.918C161.838 46.0133 161.438 45.1067 160.718 44.44C159.998 43.7467 159.038 43.4 157.838 43.4C156.692 43.4 155.745 43.7333 154.998 44.4C154.278 45.0667 153.825 45.9867 153.638 47.16ZM171.658 60V39.4H177.298V42.76H177.618C178.311 41.5333 179.031 40.5733 179.778 39.88C180.551 39.16 181.551 38.8 182.778 38.8C183.258 38.8 183.658 38.8533 183.978 38.96L183.378 45.04C183.084 44.96 182.804 44.8933 182.538 44.84C182.271 44.7867 181.991 44.76 181.698 44.76C180.711 44.76 179.924 45.0533 179.338 45.64C178.751 46.2 178.071 46.96 177.298 47.92V60H171.658Z" fill="white"/>
</g>
<circle cx="31.5" cy="31.5" r="31.5" fill="white"/>
<path d="M23.125 45.9943V17.0057L45.8882 31.5L23.125 45.9943Z" fill="#32A851"/>
<path d="M0.500031 30.5V97C0.5 107 20.5 108 20.5 97V61L0.500031 30.5Z" fill="white" stroke="white"/>
<defs>
<filter id="filter0_d_333_383" x="64.6" y="29.8" width="128.378" height="40.56" filterUnits="userSpaceOnUse" color-interpolation-filters="sRGB">
<feFlood flood-opacity="0" result="BackgroundImageFix"/>
<feColorMatrix in="SourceAlpha" type="matrix" values="0 0 0 0 0 0 0 0 0 0 0 0 0 0 0 0 0 0 127 0" result="hardAlpha"/>
<feOffset dx="4" dy="4"/>
<feGaussianBlur stdDeviation="2.5"/>
<feComposite in2="hardAlpha" operator="out"/>
<feColorMatrix type="matrix" values="0 0 0 0 0 0 0 0 0 0 0 0 0 0 0 0 0 0 1 0"/>
<feBlend mode="normal" in2="BackgroundImageFix" result="effect1_dropShadow_333_383"/>
<feBlend mode="normal" in="SourceGraphic" in2="effect1_dropShadow_333_383" result="shape"/>
</filter>
</defs>
</svg>
