<svg width="109" height="62" viewBox="0 0 109 62" fill="none" xmlns="http://www.w3.org/2000/svg">
<g filter="url(#filter0_d_333_395)">
<path d="M41.1383 31.7308C40.5783 31.7308 40.0917 31.5241 39.6783 31.1108C39.2783 30.7108 39.0783 30.2308 39.0783 29.6708C39.0783 29.0974 39.2783 28.6108 39.6783 28.2108C40.0917 27.7974 40.5783 27.5908 41.1383 27.5908C41.7117 27.5908 42.1983 27.7974 42.5983 28.2108C42.9983 28.6108 43.1983 29.0974 43.1983 29.6708C43.1983 30.2308 42.9983 30.7108 42.5983 31.1108C42.1983 31.5241 41.7117 31.7308 41.1383 31.7308ZM45.8971 31.0508V17.7308H48.7971V28.5308H53.5971V31.0508H45.8971ZM56.7041 19.0508V16.4508H59.9241V19.0508H56.7041ZM55.1441 31.0508V28.6308H57.0641V23.1708H55.1441V20.7508H59.8841V28.6308H61.6041V31.0508H55.1441ZM66.4529 31.3508C65.7995 31.3508 65.1662 31.2841 64.5529 31.1508C63.9529 31.0174 63.4395 30.8374 63.0129 30.6108L63.2729 28.2108C63.7262 28.4908 64.2262 28.7174 64.7729 28.8908C65.3195 29.0641 65.8329 29.1508 66.3129 29.1508C66.7395 29.1508 67.1129 29.0708 67.4329 28.9108C67.7529 28.7508 67.9129 28.5041 67.9129 28.1708C67.9129 27.8508 67.7395 27.6174 67.3929 27.4708C67.0595 27.3241 66.5395 27.1174 65.8329 26.8508C65.5662 26.7441 65.2662 26.6241 64.9329 26.4908C64.6129 26.3574 64.3062 26.1841 64.0129 25.9708C63.7195 25.7441 63.4795 25.4574 63.2929 25.1108C63.1062 24.7508 63.0129 24.3041 63.0129 23.7708C63.0129 23.0508 63.1929 22.4508 63.5529 21.9708C63.9262 21.4774 64.4329 21.1041 65.0729 20.8508C65.7129 20.5974 66.4329 20.4708 67.2329 20.4708C67.7795 20.4708 68.3129 20.5241 68.8329 20.6308C69.3662 20.7374 69.8729 20.8774 70.3529 21.0508L69.9729 23.4308C69.5862 23.2041 69.1462 23.0241 68.6529 22.8908C68.1729 22.7441 67.7195 22.6708 67.2929 22.6708C66.8795 22.6708 66.5329 22.7441 66.2529 22.8908C65.9862 23.0241 65.8529 23.2374 65.8529 23.5308C65.8529 23.7708 65.9462 23.9641 66.1329 24.1108C66.3195 24.2441 66.5729 24.3641 66.8929 24.4708C67.2129 24.5641 67.5662 24.6908 67.9529 24.8508C68.3395 24.9974 68.7462 25.1841 69.1729 25.4108C69.6129 25.6374 69.9862 25.9574 70.2929 26.3708C70.5995 26.7841 70.7529 27.3508 70.7529 28.0708C70.7529 28.8308 70.5595 29.4574 70.1729 29.9508C69.7995 30.4308 69.2862 30.7841 68.6329 31.0108C67.9929 31.2374 67.2662 31.3508 66.4529 31.3508ZM76.6279 31.3508C75.6679 31.3508 74.9212 31.1108 74.3879 30.6308C73.8679 30.1374 73.6079 29.4441 73.6079 28.5508V23.1708H72.0079V20.7508H73.6079V18.5508C74.5679 18.3908 75.5012 18.2708 76.4079 18.1908V20.7508H79.0079V23.1708H76.4079V28.0308C76.4079 28.6041 76.7279 28.8908 77.3679 28.8908C77.7412 28.8908 78.1679 28.8041 78.6479 28.6308L79.2679 30.7508C78.4145 31.1508 77.5345 31.3508 76.6279 31.3508ZM85.6375 31.3508C83.9842 31.3508 82.6775 30.8708 81.7175 29.9108C80.7575 28.9508 80.2775 27.6174 80.2775 25.9108C80.2775 24.7908 80.4842 23.8241 80.8975 23.0108C81.3109 22.1974 81.8909 21.5708 82.6375 21.1308C83.3975 20.6908 84.2842 20.4708 85.2975 20.4708C86.7909 20.4708 87.9375 20.9508 88.7375 21.9108C89.5375 22.8708 89.9375 24.2574 89.9375 26.0708C89.9375 26.1908 89.9375 26.3108 89.9375 26.4308C89.9375 26.5374 89.9309 26.6441 89.9175 26.7508H83.1175C83.3842 28.1908 84.3375 28.9108 85.9775 28.9108C86.4842 28.9108 86.9975 28.8508 87.5175 28.7308C88.0509 28.5974 88.5175 28.4241 88.9175 28.2108L89.3775 30.4708C88.2709 31.0574 87.0242 31.3508 85.6375 31.3508ZM83.0975 24.6308H87.2375C87.1975 24.0574 86.9975 23.6041 86.6375 23.2708C86.2775 22.9241 85.7975 22.7508 85.1975 22.7508C84.6242 22.7508 84.1509 22.9174 83.7775 23.2508C83.4175 23.5841 83.1909 24.0441 83.0975 24.6308ZM92.1071 31.0508V20.7508H94.9271V22.4308H95.0871C95.4337 21.8174 95.7937 21.3374 96.1671 20.9908C96.5537 20.6308 97.0537 20.4508 97.6671 20.4508C97.9071 20.4508 98.1071 20.4774 98.2671 20.5308L97.9671 23.5708C97.8204 23.5308 97.6804 23.4974 97.5471 23.4708C97.4137 23.4441 97.2737 23.4308 97.1271 23.4308C96.6337 23.4308 96.2404 23.5774 95.9471 23.8708C95.6537 24.1508 95.3137 24.5308 94.9271 25.0108V31.0508H92.1071Z" fill="white"/>
</g>
<ellipse cx="19.3892" cy="18.321" rx="18.3892" ry="18.321" fill="white"/>
<path d="M14.5 26.7512V9.89084L27.7888 18.321L14.5 26.7512Z" fill="#32A851"/>
<path d="M1.29187 17.7394V56.4172C1.29185 62.2334 12.9675 62.815 12.9675 56.4172V35.4788L1.29187 17.7394Z" fill="white" stroke="white"/>
<defs>
<filter id="filter0_d_333_395" x="38.0784" y="15.4508" width="69.1887" height="25.28" filterUnits="userSpaceOnUse" color-interpolation-filters="sRGB">
<feFlood flood-opacity="0" result="BackgroundImageFix"/>
<feColorMatrix in="SourceAlpha" type="matrix" values="0 0 0 0 0 0 0 0 0 0 0 0 0 0 0 0 0 0 127 0" result="hardAlpha"/>
<feOffset dx="4" dy="4"/>
<feGaussianBlur stdDeviation="2.5"/>
<feComposite in2="hardAlpha" operator="out"/>
<feColorMatrix type="matrix" values="0 0 0 0 0 0 0 0 0 0 0 0 0 0 0 0 0 0 1 0"/>
<feBlend mode="normal" in2="BackgroundImageFix" result="effect1_dropShadow_333_395"/>
<feBlend mode="normal" in="SourceGraphic" in2="effect1_dropShadow_333_395" result="shape"/>
</filter>
</defs>
</svg>
