<svg width="1024" height="1541" viewBox="0 0 1024 1541" fill="none" xmlns="http://www.w3.org/2000/svg">
<path d="M0 192.569C240.5 -6.22059 840.5 516.016 1024 192.569V1077H0V192.569Z" fill="#227037"/>
<path d="M0 1207.58C240.5 1392.92 840.5 906.022 1024 1207.58V383H0V1207.58Z" fill="#227037"/>
<circle cx="116.5" cy="116.5" r="116.5" transform="matrix(1 0 0 -1 88 273)" fill="#227037"/>
<circle cx="71" cy="71" r="71" transform="matrix(1 0 0 -1 208 142)" fill="#227037"/>
<circle cx="417.5" cy="1202.5" r="64.5" fill="#227037"/>
<circle cx="830.5" cy="1073.5" r="64.5" fill="#227037"/>
<circle cx="833.5" cy="1218.5" r="5.5" fill="#227037"/>
<circle cx="854.5" cy="1197.5" r="15.5" fill="#227037"/>
<circle cx="160.5" cy="1376.5" r="64.5" fill="#227037"/>
<circle cx="352.5" cy="1476.5" r="64.5" fill="#227037"/>
<circle cx="833.5" cy="1291.5" r="15.5" fill="#227037"/>
<circle cx="869.5" cy="1327.5" r="51.5" fill="#227037"/>
</svg>
