<svg width="121" height="121" viewBox="0 0 121 121" fill="none" xmlns="http://www.w3.org/2000/svg">
<rect x="0.685303" y="0.685303" width="119.629" height="119.629" rx="59.8147" fill="#C6C6C6"/>
<path d="M59.902 36.5741C53.1579 36.5741 47.6399 43.4409 47.6399 51.9016C47.6399 60.3624 53.1579 67.2292 59.902 67.2292C66.6461 67.2292 72.164 60.3624 72.164 51.9016C72.164 43.4409 66.6461 36.5741 59.902 36.5741ZM47.0882 67.2292C40.5893 67.5357 35.3779 72.8697 35.3779 79.4912V85.6222H84.426V79.4912C84.426 72.8697 79.2759 67.5357 72.7158 67.2292C69.405 70.9691 64.8681 73.3602 59.902 73.3602C54.9358 73.3602 50.3989 70.9691 47.0882 67.2292Z" fill="#227037"/>
</svg>
