<svg width="1024" height="1013" viewBox="0 0 1024 1013" fill="none" xmlns="http://www.w3.org/2000/svg">
<g clip-path="url(#clip0_709_97)">
<rect width="1024" height="1013" fill="#131112"/>
<path d="M1096.83 101.715C1128.73 135.65 1127.04 189.059 1093.06 221.006C1059.08 252.953 1005.67 251.342 973.764 217.407C941.862 183.472 943.549 130.064 977.532 98.1167C1011.52 66.1693 1064.93 67.7805 1096.83 101.715Z" fill="#227037"/>
<path d="M1138.23 133.248C1157.65 153.904 1156.62 186.414 1135.94 205.86C1115.25 225.306 1082.74 224.325 1063.32 203.669C1043.9 183.013 1044.93 150.504 1065.62 131.058C1086.3 111.611 1118.81 112.592 1138.23 133.248Z" fill="#227037"/>
<path d="M1144.98 56.4447C1152.38 64.3137 1151.99 76.6982 1144.11 84.1063C1136.23 91.5144 1123.84 91.1408 1116.45 83.2718C1109.05 75.4028 1109.44 63.0183 1117.32 55.6102C1125.2 48.2021 1137.59 48.5757 1144.98 56.4447Z" fill="#227037"/>
<path d="M1087.24 21.8233C1094.63 29.6923 1094.24 42.0768 1086.36 49.4849C1078.48 56.893 1066.1 56.5194 1058.7 48.6504C1051.3 40.7814 1051.69 28.3969 1059.57 20.9888C1067.45 13.5807 1079.84 13.9543 1087.24 21.8233Z" fill="#227037"/>
<path d="M986.324 703.98C1010.56 674.396 1054.48 670.303 1084.44 694.839C1114.39 719.375 1119.03 763.248 1094.8 792.832C1070.56 822.416 1026.63 826.509 996.681 801.973C966.728 777.438 962.09 733.565 986.324 703.98Z" fill="#227037"/>
<path d="M1007.53 666.867C1022.28 648.859 1049.02 646.368 1067.25 661.303C1085.48 676.238 1088.31 702.943 1073.56 720.951C1058.81 738.959 1032.07 741.45 1013.83 726.515C995.602 711.58 992.779 684.875 1007.53 666.867Z" fill="#227037"/>
<path d="M943.878 669.212C949.498 662.352 959.684 661.403 966.629 667.092C973.575 672.782 974.65 682.955 969.031 689.816C963.412 696.676 953.226 697.625 946.28 691.935C939.334 686.246 938.259 676.072 943.878 669.212Z" fill="#227037"/>
<path d="M921.965 720.016C927.584 713.156 937.77 712.207 944.716 717.896C951.662 723.586 952.737 733.759 947.118 740.619C941.499 747.479 931.313 748.428 924.367 742.739C917.421 737.049 916.346 726.876 921.965 720.016Z" fill="#227037"/>
<path d="M25.5893 349.032C51.7834 376.895 50.1484 420.982 21.9375 447.503C-6.27343 474.024 -50.3774 472.936 -76.5715 445.073C-102.766 417.21 -101.131 373.123 -72.9196 346.602C-44.7087 320.081 -0.604723 321.169 25.5893 349.032Z" fill="#227037"/>
<path d="M59.641 374.869C75.5852 391.83 74.59 418.665 57.4181 434.809C40.2462 450.952 13.4003 450.289 -2.54387 433.329C-18.4881 416.369 -17.4929 389.533 -0.321007 373.39C16.8509 357.247 43.6967 357.909 59.641 374.869Z" fill="#227037"/>
<path d="M65.5653 311.451C71.6393 317.912 71.2602 328.135 64.7185 334.285C58.1768 340.434 47.9498 340.182 41.8758 333.721C35.8019 327.26 36.181 317.037 42.7226 310.887C49.2643 304.737 59.4913 304.99 65.5653 311.451Z" fill="#227037"/>
<path d="M18.0302 283.138C24.1042 289.599 23.7251 299.822 17.1834 305.972C10.6418 312.122 0.414772 311.869 -5.65921 305.408C-11.7332 298.947 -11.3541 288.724 -4.81241 282.574C1.72926 276.425 11.9563 276.677 18.0302 283.138Z" fill="#227037"/>
</g>
<defs>
<clipPath id="clip0_709_97">
<rect width="1024" height="1013" fill="white"/>
</clipPath>
</defs>
</svg>
