<svg width="20" height="21" viewBox="0 0 20 21" fill="none" xmlns="http://www.w3.org/2000/svg">
<g clip-path="url(#clip0_387_454)">
<path fill-rule="evenodd" clip-rule="evenodd" d="M2.85714 9.07143C2.85714 5.91551 5.41551 3.35714 8.57143 3.35714C11.7273 3.35714 14.2857 5.91551 14.2857 9.07143C14.2857 12.2273 11.7273 14.7857 8.57143 14.7857C5.41551 14.7857 2.85714 12.2273 2.85714 9.07143ZM8.57143 0.5C3.83756 0.5 0 4.33756 0 9.07143C0 13.8053 3.83756 17.6429 8.57143 17.6429C10.4225 17.6429 12.1366 17.056 13.5377 16.0583L17.5613 20.0819C18.1191 20.6397 19.0237 20.6397 19.5816 20.0819C20.1394 19.524 20.1394 18.6194 19.5816 18.0616L15.5581 14.0381C16.556 12.6369 17.1429 10.9227 17.1429 9.07143C17.1429 4.33756 13.3053 0.5 8.57143 0.5Z" fill="white"/>
</g>
<defs>
<clipPath id="clip0_387_454">
<rect width="20" height="20" fill="white" transform="translate(0 0.5)"/>
</clipPath>
</defs>
</svg>
