<svg width="22" height="26" viewBox="0 0 22 26" fill="none" xmlns="http://www.w3.org/2000/svg">
<path d="M9.41561 0C7.68942 0 6.27708 1.41234 6.27708 3.13854H3.13854C1.41234 3.13854 0 4.55088 0 6.27708H21.9698C21.9698 4.55088 20.5574 3.13854 18.8312 3.13854H15.6927C15.6927 1.41234 14.2803 0 12.5542 0H9.41561ZM3.13854 9.41561V24.512C3.13854 24.8572 3.38962 25.1083 3.73486 25.1083H18.2663C18.6115 25.1083 18.8626 24.8572 18.8626 24.512V9.41561H15.7241V20.4005C15.7241 21.2793 15.0336 21.9698 14.1548 21.9698C13.276 21.9698 12.5855 21.2793 12.5855 20.4005V9.41561H9.447V20.4005C9.447 21.2793 8.75652 21.9698 7.87773 21.9698C6.99894 21.9698 6.30846 21.2793 6.30846 20.4005V9.41561H3.16992H3.13854Z" fill="#D9D9D9"/>
</svg>
