<svg width="235" height="187" viewBox="0 0 235 187" fill="none" xmlns="http://www.w3.org/2000/svg">
<path d="M168.906 84.3333C168.906 130.909 131.095 168.667 84.4531 168.667C37.811 168.667 0 130.909 0 84.3333C0 37.7573 37.811 0 84.4531 0C131.095 0 168.906 37.7573 168.906 84.3333Z" fill="#227037"/>
<path d="M177.474 135.667C177.474 164.017 154.459 187 126.068 187C97.6768 187 74.6615 164.017 74.6615 135.667C74.6615 107.316 97.6768 84.3333 126.068 84.3333C154.459 84.3333 177.474 107.316 177.474 135.667Z" fill="#227037"/>
<path d="M235 84.3333C235 95.1336 226.232 103.889 215.417 103.889C204.601 103.889 195.833 95.1336 195.833 84.3333C195.833 73.5331 204.601 64.7778 215.417 64.7778C226.232 64.7778 235 73.5331 235 84.3333Z" fill="#227037"/>
<path d="M216.641 19.5556C216.641 30.3558 207.873 39.1111 197.057 39.1111C186.242 39.1111 177.474 30.3558 177.474 19.5556C177.474 8.75532 186.242 0 197.057 0C207.873 0 216.641 8.75532 216.641 19.5556Z" fill="#227037"/>
</svg>
